# xmcd CD database file
#
# Track frame offsets:
#	182
#	47725
#	76762
#	109867
#	129105
#	172605
#	207355
#	225792
#	255782
#	276792
#	306817
#	332067
#
# Disc length: 4597 seconds
#
# Revision: 0
# Processed by: cddbd v1.4PL0 Copyright (c) Steve Scherf et al.
# Submitted via: CDex 1.50
#
DISCID=8611f30c
DTITLE=Robben Ford - Waiting For A Miracle
DYEAR=1993
DGENRE=Jazz
TTITLE0=Worried Life Blues
TTITLE1=You Cut Me To The Bone
TTITLE2=Step On It
TTITLE3=Busted Up
TTITLE4=Talk To Your Daughter
TTITLE5=Tell Me I'm Your Man
TTITLE6=Politician
TTITLE7=My Love Is True
TTITLE8=I'm Mad At You
TTITLE9=Waiting For A Miracle
TTITLE10=He Don't Play Nothin' But The Blues
TTITLE11=Bonus-Track
EXTD=YEAR: 1993
EXTT0=
EXTT1=
EXTT2=
EXTT3=
EXTT4=
EXTT5=
EXTT6=
EXTT7=
EXTT8=
EXTT9=
EXTT10=
EXTT11=
PLAYORDER=
